<svg xmlns="http://www.w3.org/2000/svg" data-name="Ebene 1" width="54" height="54">
  <rect id="backgroundrect" width="100%" height="100%" x="0" y="0" fill="#fff" stroke="none" class=""/>
  <defs>
    <style>.cls-1{fill:#00b1db;}.cls-2{fill:#51535b;}</style>
  </defs>
  <title>pluswerk</title>
  <g class="currentLayer">
    <title>Layer 1</title>
    <g class="" id="svg_4">
      <path class="cls-1"
            d="M41.08004899202395,47.00421125208959 a0.4400000000000001,0.4400000000000001 0 0 0 -0.4400000000000001,0.4300000000000001 v5.86 a0.4400000000000001,0.4400000000000001 0 0 0 0.4400000000000001,0.4300000000000001 H53.76004899202395 a0.4400000000000001,0.4400000000000001 0 0 0 0.4400000000000001,-0.4300000000000001 V0.43421125208959005 A0.4300000000000001,0.4300000000000001 0 0 0 53.76004899202395,0.004211252089589834 H41.08004899202395 a0.4400000000000001,0.4400000000000001 0 0 0 -0.4400000000000001,0.4300000000000001 V6.29421125208959 a0.4300000000000001,0.4300000000000001 0 0 0 0.4400000000000001,0.4300000000000001 h5.91 a0.4300000000000001,0.4300000000000001 0 0 1 0.4300000000000001,0.4300000000000001 V46.60421125208959 a0.4400000000000001,0.4400000000000001 0 0 1 -0.4300000000000001,0.4400000000000001 H41.08004899202395 z"
            id="svg_1"/>
      <path class="cls-2"
            d="M40.65004899202395,23.95421125208959 a0.4400000000000001,0.4400000000000001 0 0 0 -0.4300000000000001,-0.4300000000000001 H30.92004899202395 a0.4400000000000001,0.4400000000000001 0 0 1 -0.4400000000000001,-0.4300000000000001 V13.87421125208959 a0.4300000000000001,0.4300000000000001 0 0 0 -0.4300000000000001,-0.4300000000000001 h-5.9 a0.4300000000000001,0.4300000000000001 0 0 0 -0.4300000000000001,0.4300000000000001 v9.22 a0.4300000000000001,0.4300000000000001 0 0 1 -0.4300000000000001,0.4300000000000001 H13.950048992023948 a0.4100000000000001,0.4100000000000001 0 0 0 -0.4,0.4300000000000001 v5.86 a0.4400000000000001,0.4400000000000001 0 0 0 0.4300000000000001,0.4300000000000001 h9.3 a0.4300000000000001,0.4300000000000001 0 0 1 0.4300000000000001,0.4300000000000001 v9.22 a0.4300000000000001,0.4300000000000001 0 0 0 0.4300000000000001,0.4400000000000001 h5.91 a0.4300000000000001,0.4300000000000001 0 0 0 0.4300000000000001,-0.4400000000000001 V30.67421125208959 a0.4300000000000001,0.4300000000000001 0 0 1 0.4400000000000001,-0.4300000000000001 h9.29 a0.4300000000000001,0.4300000000000001 0 0 0 0.4300000000000001,-0.4300000000000001 V23.95421125208959 h0 z"
            id="svg_2"/>
      <path class="cls-1"
            d="M13.12004899202395,6.72421125208959 a0.4400000000000001,0.4400000000000001 0 0 0 0.4300000000000001,-0.4300000000000001 V0.43421125208959005 A0.4300000000000001,0.4300000000000001 0 0 0 13.12004899202395,0.004211252089589834 H0.4400489920239489 a0.4300000000000001,0.4300000000000001 0 0 0 -0.4400000000000001,0.4300000000000001 v52.9 a0.4400000000000001,0.4400000000000001 0 0 0 0.4400000000000001,0.4300000000000001 H13.12004899202395 a0.4300000000000001,0.4300000000000001 0 0 0 0.4300000000000001,-0.4300000000000001 V47.47421125208959 a0.4300000000000001,0.4300000000000001 0 0 0 -0.4300000000000001,-0.4300000000000001 H7.210048992023949 a0.4400000000000001,0.4400000000000001 0 0 1 -0.4300000000000001,-0.4400000000000001 V7.15421125208959 a0.4300000000000001,0.4300000000000001 0 0 1 0.4300000000000001,-0.4300000000000001 h5.91 z"
            id="svg_3"/>
    </g>
  </g>
</svg>
